<svg xmlns="http://www.w3.org/2000/svg" viewBox="0 0 64 64">
  <!-- Base / pedestal -->
  <rect x="14" y="54" width="36" height="6" rx="1" fill="#1F3D2B"/>
  <rect x="18" y="48" width="28" height="6" rx="1" fill="#1F3D2B"/>
  <!-- Knight body -->
  <path fill="#1F3D2B" d="
    M22 48
    L21 38
    C20 34 21 30 24 27
    L27 23
    C28 22 28 20.5 27 19
    L24 15
    C22.5 13 22 10.5 23 8
    C24 5.5 26.5 4 29.5 4
    C32 4 34 5 35.5 7
    C37 9 37 12 35.5 14.5
    L33 18
    C32 19.5 32.5 21 34 22
    L38 24
    C40 25 41.5 27 42 30
    L43 38
    L44 48
    Z
  "/>
  <!-- Ermine spot (moucheture d'hermine) -->
  <g fill="#FFFFFF">
    <path d="M33 29 L31 34 L35 34 Z"/>
    <path d="M30 33 L28.5 31 L30.5 30 L32 32 Z"/>
    <path d="M36 33 L37.5 31 L35.5 30 L34 32 Z"/>
    <circle cx="33" cy="36" r="1.5"/>
  </g>
  <!-- Eye -->
  <circle cx="28.5" cy="10" r="1.5" fill="#FFFFFF"/>
</svg>
